<svg width="62" height="36" viewBox="0 0 62 36" fill="none" xmlns="http://www.w3.org/2000/svg">
<path d="M0.592438 19.41L16.5924 35.41C17.3724 36.19 18.6424 36.19 19.4224 35.41C20.2024 34.63 20.2024 33.36 19.4224 32.58L6.83244 20L60.0024 20C61.1024 20 62.0024 19.1 62.0024 18C62.0024 16.9 61.1024 16 60.0024 16L6.83244 16L19.4124 3.41C20.1924 2.63 20.1924 1.36 19.4124 0.579998C19.0224 0.199998 18.5124 -3.8147e-06 18.0024 -3.8147e-06C17.4924 -3.8147e-06 16.9824 0.199993 16.5924 0.589993L0.592438 16.59C-0.197562 17.37 -0.197562 18.63 0.592438 19.41Z" fill="#0029FF"/>
</svg>
